<svg width="40" height="40" viewBox="0 0 40 40" fill="none" xmlns="http://www.w3.org/2000/svg">
<path d="M11.9996 32C9.79966 32 8.01973 33.8 8.01973 36C8.01973 38.2 9.79966 40 11.9996 40C14.1995 40 15.9995 38.2 15.9995 36C15.9995 33.8 14.1995 32 11.9996 32ZM0 0V4H3.99986L11.1996 19.18L8.49971 24.08C8.17972 24.64 7.99973 25.3 7.99973 26C7.99973 28.2 9.79966 30 11.9996 30H35.9988V26H12.8396C12.5596 26 12.3396 25.78 12.3396 25.5L12.3996 25.26L14.1995 22H29.099C30.5989 22 31.9189 21.18 32.5989 19.94L39.7586 6.96C39.9236 6.65477 40.0067 6.31196 39.9996 5.96506C39.9925 5.61815 39.8956 5.27902 39.7182 4.98078C39.5409 4.68254 39.2893 4.43539 38.9879 4.26349C38.6865 4.09159 38.3457 4.0008 37.9987 4H8.41971L6.53978 0H0ZM31.9989 32C29.799 32 28.019 33.8 28.019 36C28.019 38.2 29.799 40 31.9989 40C34.1988 40 35.9988 38.2 35.9988 36C35.9988 33.8 34.1988 32 31.9989 32Z" fill="#7838F8"/>
</svg>
