<svg width="30" height="30" viewBox="0 0 30 30" fill="none" xmlns="http://www.w3.org/2000/svg">
<path d="M8.99969 24C7.34975 24 6.01479 25.35 6.01479 27C6.01479 28.65 7.34975 30 8.99969 30C10.6496 30 11.9996 28.65 11.9996 27C11.9996 25.35 10.6496 24 8.99969 24ZM0 0V3H2.9999L8.39971 14.385L6.37478 18.06C6.13479 18.48 5.99979 18.975 5.99979 19.5C5.99979 21.15 7.34975 22.5 8.99969 22.5H26.9991V19.5H9.62967C9.41968 19.5 9.25468 19.335 9.25468 19.125L9.29968 18.945L10.6496 16.5H21.8243C22.9492 16.5 23.9392 15.885 24.4492 14.955L29.819 5.22C29.9427 4.99108 30.005 4.73397 29.9997 4.47379C29.9944 4.21362 29.9217 3.95926 29.7887 3.73558C29.6557 3.5119 29.4669 3.32655 29.2409 3.19762C29.0149 3.06869 28.7592 3.0006 28.499 3H6.31478L4.90483 0H0ZM23.9992 24C22.3492 24 21.0143 25.35 21.0143 27C21.0143 28.65 22.3492 30 23.9992 30C25.6491 30 26.9991 28.65 26.9991 27C26.9991 25.35 25.6491 24 23.9992 24Z" fill="white"/>
</svg>
