<svg width="30" height="30" viewBox="0 0 30 30" fill="none" xmlns="http://www.w3.org/2000/svg">
<path d="M26.6406 26.6406V15H30V26.6406C30 27.5781 29.6745 28.3724 29.0234 29.0234C28.3724 29.6745 27.5781 30 26.6406 30H3.35938C2.42188 30 1.6276 29.6745 0.976562 29.0234C0.325521 28.3724 0 27.5781 0 26.6406V3.35938C0 2.42188 0.325521 1.6276 0.976562 0.976562C1.6276 0.325521 2.42188 0 3.35938 0H15V3.35938H3.35938V26.6406H26.6406ZM18.3594 0H30V11.6406H26.6406V5.70312L10.3125 22.0312L7.96875 19.6875L24.2969 3.35938H18.3594V0Z" fill="#F8F8F8"/>
</svg>
