<svg width="20" height="20" viewBox="0 0 20 20" fill="none" xmlns="http://www.w3.org/2000/svg">
<path d="M13.2486 10.8484L9.0497 15.0484C8.82448 15.2725 8.5196 15.3981 8.2019 15.3977C7.88421 15.3973 7.57963 15.271 7.35495 15.0463C7.13027 14.8217 7.00383 14.5172 7.00336 14.1995C7.00288 13.8818 7.1284 13.5769 7.3524 13.3516L9.5034 11.2H1.2C0.88174 11.2 0.576516 11.0736 0.351472 10.8485C0.126428 10.6235 0 10.3183 0 10C0 9.68174 0.126428 9.37652 0.351472 9.15147C0.576516 8.92643 0.88174 8.8 1.2 8.8H9.5035L7.3525 6.6484C7.13051 6.42271 7.00669 6.11845 7.00802 5.80188C7.00935 5.48532 7.13571 5.1821 7.35958 4.95828C7.58345 4.73446 7.8867 4.60817 8.20327 4.60692C8.51983 4.60567 8.82406 4.72956 9.0497 4.9516L13.2487 9.1516C13.4737 9.37663 13.6 9.6818 13.6 10C13.6 10.3182 13.4737 10.6234 13.2487 10.8484H13.2486ZM18 0H12.4C12.0817 0 11.7765 0.126428 11.5515 0.351472C11.3264 0.576516 11.2 0.88174 11.2 1.2C11.2 1.51826 11.3264 1.82348 11.5515 2.04853C11.7765 2.27357 12.0817 2.4 12.4 2.4H17.6V17.6H12.4C12.0817 17.6 11.7765 17.7264 11.5515 17.9515C11.3264 18.1765 11.2 18.4817 11.2 18.8C11.2 19.1183 11.3264 19.4235 11.5515 19.6485C11.7765 19.8736 12.0817 20 12.4 20H18C18.5303 19.9994 19.0386 19.7885 19.4136 19.4136C19.7885 19.0386 19.9994 18.5303 20 18V2C19.9994 1.46975 19.7885 0.961376 19.4136 0.58643C19.0386 0.211483 18.5303 0.000582319 18 0V0Z" fill="white"/>
</svg>
