<svg width="150" height="30" viewBox="0 0 150 30" fill="none" xmlns="http://www.w3.org/2000/svg">
<path fill-rule="evenodd" clip-rule="evenodd" d="M72.6918 9.00279C72.6901 13.9542 72.5611 19.13 72.4051 20.5052L72.1218 23.0051H74.4091H76.6967V19.5041C76.6967 16.3175 77.2437 14.1164 78.0351 14.1164C78.2036 14.1164 79.2103 16.1164 80.2721 18.5607L82.2027 23.0051H84.289H86.3748L83.526 16.6826L80.6767 10.3598L83.747 5.38656L86.8177 0.412957H84.7154H82.6136L79.7661 5.32027L76.9191 10.2276L76.6967 5.22768L76.4744 0.227775L74.5847 0.114071L72.695 0L72.6918 9.00279ZM57.305 0.775911C55.9871 1.21961 54.5371 2.86365 54.2192 4.27436C53.759 6.31654 54.7777 19.4333 55.5095 20.8926C56.4295 22.7262 58.1031 23.541 60.8804 23.5077C65.5238 23.4518 67.3593 21.6862 67.3593 17.2763V14.8571H65.3468H63.3339L63.4375 17.0419C63.5033 18.43 63.3259 19.4426 62.9502 19.8196C62.1191 20.6537 59.9404 20.5818 59.3744 19.7011C59.1231 19.31 58.7087 15.7882 58.4535 11.875C58.0302 5.38138 58.0556 4.69917 58.7416 4.0677C60.5055 2.4444 62.9128 3.71845 62.9128 6.27543V7.82022H64.9751H67.0369L66.7385 5.70322C66.3939 3.26364 65.3348 1.53849 63.7777 0.882206C62.546 0.362957 58.7185 0.299995 57.305 0.775911ZM91.4291 11.892C90.8804 18.0493 90.4922 23.1292 90.5669 23.1807C90.6416 23.2318 91.5353 23.3618 92.5522 23.4699L94.4019 23.6662L94.6772 21.0211C94.8288 19.5659 95.0685 17.406 95.2094 16.2208L95.466 14.066L98.309 14.3194L101.152 14.573V13.0916C101.152 11.4457 100.625 11.1679 97.4838 11.1587L95.8164 11.1535V9.35352C95.8164 8.36317 95.9471 6.75987 96.1063 5.79063L96.3966 4.02807L99.8466 4.19437L103.296 4.36066L103.462 2.91476C103.553 2.11922 103.521 1.41442 103.39 1.34812C103.26 1.28183 100.739 1.10813 97.7897 0.961833L92.4264 0.696284L91.4291 11.892ZM38.5905 2.12551C37.0275 2.76735 36.0858 3.77548 35.6403 5.28434C35.3072 6.41099 36.9239 19.6248 37.614 21.4188C38.1618 22.8433 40.16 24.3325 41.9666 24.6628C45.1489 25.2451 49.3081 23.2644 49.8372 20.9148C50.2201 19.2148 48.3472 5.36397 47.5638 4.10214C46.458 2.3207 44.8199 1.52293 42.2881 1.53256C41.0373 1.53701 39.373 1.80404 38.5905 2.12551ZM108.538 6.57506C108.129 9.19501 107.334 14.2819 106.773 17.8793L105.753 24.4203L109.122 24.8147C110.975 25.0314 113.541 25.318 114.825 25.451L117.159 25.6932V24.1932C117.159 22.5425 117.266 22.5922 112.602 22.0803C111.029 21.9077 110.488 21.6888 110.483 21.2233C110.48 20.8792 111.105 16.5497 111.874 11.6016C112.642 6.65395 113.161 2.51514 113.028 2.40403C112.895 2.29329 111.998 2.11441 111.035 2.007L109.284 1.81108L108.538 6.57506ZM20.8941 4.01548C20.1605 4.10252 19.3904 4.31066 19.1832 4.47769C18.7714 4.80954 22.8052 25.9439 23.3833 26.4858C23.5909 26.6802 25.9173 26.5239 28.9857 26.1091L34.2334 25.4002L34.0782 24.1099C33.9929 23.4007 33.8488 22.7192 33.7581 22.5955C33.6674 22.4722 32.1365 22.5829 30.3561 22.841C28.5758 23.0992 26.9889 23.2003 26.8292 23.0655C26.6696 22.9303 25.6874 18.5282 24.6465 13.2831C23.6056 8.03799 22.6354 3.77104 22.4909 3.80178C22.3463 3.83215 21.6278 3.92845 20.8941 4.01548ZM125.583 3.83437C125.57 3.88771 124.504 8.93131 123.214 15.0423L120.87 26.1532L122.816 26.4743C123.886 26.651 124.815 26.7343 124.879 26.6595C125.041 26.4702 129.586 4.33954 129.476 4.27362C129.284 4.15807 125.606 3.74326 125.583 3.83437ZM43.4766 5.14101C43.9906 5.61397 44.4468 7.76355 45.1254 12.906C46.1587 20.737 46.0453 21.5281 43.8888 21.5181C41.4602 21.5066 41.4153 21.4074 40.4517 13.9342C39.4433 6.11432 39.4433 5.61508 40.4468 5.00361C41.5914 4.30659 42.6211 4.35362 43.4766 5.14101ZM135.636 6.43136C137.269 16.7534 137.327 16.416 132.943 22.2644L129.194 27.2643L130.847 27.6783C131.755 27.9065 132.626 28.0332 132.782 27.9606C132.938 27.8876 134.314 26.0702 135.841 23.9214C137.368 21.7725 138.709 20.0911 138.821 20.1848C138.934 20.2785 139.258 22.4047 139.542 24.9099L140.058 29.4646L141.988 29.7816C143.049 29.9561 143.979 30.0442 144.053 29.9779C144.127 29.9113 143.835 27.1902 143.402 23.931L142.617 18.0052L146.308 12.9294L150 7.85355L148.141 7.53985L146.283 7.22653L143.678 10.8535C142.245 12.8483 140.917 14.4001 140.726 14.3019C140.534 14.2034 140.236 12.3038 140.061 10.0802L139.744 6.03692L137.815 5.63248C136.753 5.4099 135.786 5.22768 135.665 5.22768C135.544 5.22768 135.531 5.76952 135.636 6.43136ZM3.63669 7.0743C1.72651 7.4417 0.092451 7.8017 0.00574578 7.87392C-0.207682 8.0517 5.59356 29.4179 5.94394 29.745C6.32633 30.102 13.0062 28.8213 14.7972 28.0476C17.084 27.0595 17.8408 25.3477 17.2534 22.4918C16.6287 19.4526 15.4833 17.483 14.0431 16.9697C13.409 16.7437 12.8248 16.5238 12.7439 16.4808C12.6634 16.4378 12.9404 15.9664 13.3601 15.433C13.9444 14.6905 14.0684 13.9664 13.8897 12.3453C13.5802 9.53796 12.4304 7.61615 10.6362 6.9069C8.8688 6.2084 8.03421 6.2284 3.63669 7.0743ZM9.35613 10.9565C10.7799 13.7945 9.9017 15.9297 7.29966 15.9564C6.23118 15.9675 6.10579 15.7789 5.41259 13.1183C4.582 9.93017 4.71139 9.68759 7.24408 9.67759C8.50152 9.67277 8.80433 9.85611 9.35613 10.9565ZM12.1987 20.0037C13.0707 21.3603 13.5896 24.1147 13.1138 24.8558C12.6336 25.6032 9.55977 26.5154 9.07911 26.0532C8.52731 25.5225 7.24674 19.5955 7.6198 19.2974C8.2005 18.8333 10.1307 18.67 10.9906 19.0126C11.413 19.1807 11.9568 19.627 12.1987 20.0037Z" fill="#7838F8"/>
</svg>
