<svg width="208" height="40" viewBox="0 0 208 40" fill="none" xmlns="http://www.w3.org/2000/svg">
<path d="M62.732 16.144C62.732 16.568 62.632 16.968 62.432 17.344C62.232 17.72 61.912 18.028 61.472 18.268C61.032 18.5 60.468 18.616 59.78 18.616H58.268V22H56.9V13.66H59.78C60.42 13.66 60.96 13.772 61.4 13.996C61.848 14.212 62.18 14.508 62.396 14.884C62.62 15.26 62.732 15.68 62.732 16.144ZM59.78 17.5C60.3 17.5 60.688 17.384 60.944 17.152C61.2 16.912 61.328 16.576 61.328 16.144C61.328 15.232 60.812 14.776 59.78 14.776H58.268V17.5H59.78ZM66.9047 22.108C66.2807 22.108 65.7167 21.968 65.2127 21.688C64.7087 21.4 64.3127 21 64.0247 20.488C63.7367 19.968 63.5927 19.368 63.5927 18.688C63.5927 18.016 63.7407 17.42 64.0367 16.9C64.3327 16.38 64.7367 15.98 65.2487 15.7C65.7607 15.42 66.3327 15.28 66.9647 15.28C67.5967 15.28 68.1687 15.42 68.6807 15.7C69.1927 15.98 69.5967 16.38 69.8927 16.9C70.1887 17.42 70.3367 18.016 70.3367 18.688C70.3367 19.36 70.1847 19.956 69.8807 20.476C69.5767 20.996 69.1607 21.4 68.6327 21.688C68.1127 21.968 67.5367 22.108 66.9047 22.108ZM66.9047 20.92C67.2567 20.92 67.5847 20.836 67.8887 20.668C68.2007 20.5 68.4527 20.248 68.6447 19.912C68.8367 19.576 68.9327 19.168 68.9327 18.688C68.9327 18.208 68.8407 17.804 68.6567 17.476C68.4727 17.14 68.2287 16.888 67.9247 16.72C67.6207 16.552 67.2927 16.468 66.9407 16.468C66.5887 16.468 66.2607 16.552 65.9567 16.72C65.6607 16.888 65.4247 17.14 65.2487 17.476C65.0727 17.804 64.9847 18.208 64.9847 18.688C64.9847 19.4 65.1647 19.952 65.5247 20.344C65.8927 20.728 66.3527 20.92 66.9047 20.92ZM80.5691 15.388L78.5171 22H77.0771L75.7451 17.116L74.4131 22H72.9731L70.9091 15.388H72.3011L73.6811 20.704L75.0851 15.388H76.5131L77.8571 20.68L79.2251 15.388H80.5691ZM87.6514 18.532C87.6514 18.78 87.6354 19.004 87.6034 19.204H82.5514C82.5914 19.732 82.7874 20.156 83.1394 20.476C83.4914 20.796 83.9234 20.956 84.4354 20.956C85.1714 20.956 85.6914 20.648 85.9954 20.032H87.4714C87.2714 20.64 86.9074 21.14 86.3794 21.532C85.8594 21.916 85.2114 22.108 84.4354 22.108C83.8034 22.108 83.2354 21.968 82.7314 21.688C82.2354 21.4 81.8434 21 81.5554 20.488C81.2754 19.968 81.1354 19.368 81.1354 18.688C81.1354 18.008 81.2714 17.412 81.5434 16.9C81.8234 16.38 82.2114 15.98 82.7074 15.7C83.2114 15.42 83.7874 15.28 84.4354 15.28C85.0594 15.28 85.6154 15.416 86.1034 15.688C86.5914 15.96 86.9714 16.344 87.2434 16.84C87.5154 17.328 87.6514 17.892 87.6514 18.532ZM86.2234 18.1C86.2154 17.596 86.0354 17.192 85.6834 16.888C85.3314 16.584 84.8954 16.432 84.3754 16.432C83.9034 16.432 83.4994 16.584 83.1634 16.888C82.8274 17.184 82.6274 17.588 82.5634 18.1H86.2234ZM90.3657 16.348C90.5657 16.012 90.8297 15.752 91.1577 15.568C91.4937 15.376 91.8897 15.28 92.3457 15.28V16.696H91.9977C91.4617 16.696 91.0537 16.832 90.7737 17.104C90.5017 17.376 90.3657 17.848 90.3657 18.52V22H88.9977V15.388H90.3657V16.348ZM99.6631 18.532C99.6631 18.78 99.6471 19.004 99.6151 19.204H94.5631C94.6031 19.732 94.7991 20.156 95.1511 20.476C95.5031 20.796 95.9351 20.956 96.4471 20.956C97.1831 20.956 97.7031 20.648 98.0071 20.032H99.4831C99.2831 20.64 98.9191 21.14 98.3911 21.532C97.8711 21.916 97.2231 22.108 96.4471 22.108C95.8151 22.108 95.2471 21.968 94.7431 21.688C94.2471 21.4 93.8551 21 93.5671 20.488C93.2871 19.968 93.1471 19.368 93.1471 18.688C93.1471 18.008 93.2831 17.412 93.5551 16.9C93.8351 16.38 94.2231 15.98 94.7191 15.7C95.2231 15.42 95.7991 15.28 96.4471 15.28C97.0711 15.28 97.6271 15.416 98.1151 15.688C98.6031 15.96 98.9831 16.344 99.2551 16.84C99.5271 17.328 99.6631 17.892 99.6631 18.532ZM98.2351 18.1C98.2271 17.596 98.0471 17.192 97.6951 16.888C97.3431 16.584 96.9071 16.432 96.3871 16.432C95.9151 16.432 95.5111 16.584 95.1751 16.888C94.8391 17.184 94.6391 17.588 94.5751 18.1H98.2351ZM100.553 18.664C100.553 18 100.689 17.412 100.961 16.9C101.241 16.388 101.617 15.992 102.089 15.712C102.569 15.424 103.101 15.28 103.685 15.28C104.117 15.28 104.541 15.376 104.957 15.568C105.381 15.752 105.717 16 105.965 16.312V13.12H107.345V22H105.965V21.004C105.741 21.324 105.429 21.588 105.029 21.796C104.637 22.004 104.185 22.108 103.673 22.108C103.097 22.108 102.569 21.964 102.089 21.676C101.617 21.38 101.241 20.972 100.961 20.452C100.689 19.924 100.553 19.328 100.553 18.664ZM105.965 18.688C105.965 18.232 105.869 17.836 105.677 17.5C105.493 17.164 105.249 16.908 104.945 16.732C104.641 16.556 104.313 16.468 103.961 16.468C103.609 16.468 103.281 16.556 102.977 16.732C102.673 16.9 102.425 17.152 102.233 17.488C102.049 17.816 101.957 18.208 101.957 18.664C101.957 19.12 102.049 19.52 102.233 19.864C102.425 20.208 102.673 20.472 102.977 20.656C103.289 20.832 103.617 20.92 103.961 20.92C104.313 20.92 104.641 20.832 104.945 20.656C105.249 20.48 105.493 20.224 105.677 19.888C105.869 19.544 105.965 19.144 105.965 18.688ZM113.627 16.372C113.859 16.052 114.175 15.792 114.575 15.592C114.983 15.384 115.435 15.28 115.931 15.28C116.515 15.28 117.043 15.42 117.515 15.7C117.987 15.98 118.359 16.38 118.631 16.9C118.903 17.412 119.039 18 119.039 18.664C119.039 19.328 118.903 19.924 118.631 20.452C118.359 20.972 117.983 21.38 117.503 21.676C117.031 21.964 116.507 22.108 115.931 22.108C115.419 22.108 114.963 22.008 114.563 21.808C114.171 21.608 113.859 21.352 113.627 21.04V22H112.259V13.12H113.627V16.372ZM117.647 18.664C117.647 18.208 117.551 17.816 117.359 17.488C117.175 17.152 116.927 16.9 116.615 16.732C116.311 16.556 115.983 16.468 115.631 16.468C115.287 16.468 114.959 16.556 114.647 16.732C114.343 16.908 114.095 17.164 113.903 17.5C113.719 17.836 113.627 18.232 113.627 18.688C113.627 19.144 113.719 19.544 113.903 19.888C114.095 20.224 114.343 20.48 114.647 20.656C114.959 20.832 115.287 20.92 115.631 20.92C115.983 20.92 116.311 20.832 116.615 20.656C116.927 20.472 117.175 20.208 117.359 19.864C117.551 19.52 117.647 19.12 117.647 18.664ZM126.344 15.388L122.288 25.108H120.872L122.216 21.892L119.612 15.388H121.136L122.996 20.428L124.928 15.388H126.344ZM135.402 13.66V14.776H131.862V17.236H134.622V18.352H131.862V22H130.494V13.66H135.402ZM138.038 16.348C138.238 16.012 138.502 15.752 138.83 15.568C139.166 15.376 139.562 15.28 140.018 15.28V16.696H139.67C139.134 16.696 138.726 16.832 138.446 17.104C138.174 17.376 138.038 17.848 138.038 18.52V22H136.67V15.388H138.038V16.348ZM144.143 22.108C143.519 22.108 142.955 21.968 142.451 21.688C141.947 21.4 141.551 21 141.263 20.488C140.975 19.968 140.831 19.368 140.831 18.688C140.831 18.016 140.979 17.42 141.275 16.9C141.571 16.38 141.975 15.98 142.487 15.7C142.999 15.42 143.571 15.28 144.203 15.28C144.835 15.28 145.407 15.42 145.919 15.7C146.431 15.98 146.835 16.38 147.131 16.9C147.427 17.42 147.575 18.016 147.575 18.688C147.575 19.36 147.423 19.956 147.119 20.476C146.815 20.996 146.399 21.4 145.871 21.688C145.351 21.968 144.775 22.108 144.143 22.108ZM144.143 20.92C144.495 20.92 144.823 20.836 145.127 20.668C145.439 20.5 145.691 20.248 145.883 19.912C146.075 19.576 146.171 19.168 146.171 18.688C146.171 18.208 146.079 17.804 145.895 17.476C145.711 17.14 145.467 16.888 145.163 16.72C144.859 16.552 144.531 16.468 144.179 16.468C143.827 16.468 143.499 16.552 143.195 16.72C142.899 16.888 142.663 17.14 142.487 17.476C142.311 17.804 142.223 18.208 142.223 18.688C142.223 19.4 142.403 19.952 142.763 20.344C143.131 20.728 143.591 20.92 144.143 20.92ZM152.263 15.28C152.783 15.28 153.247 15.388 153.655 15.604C154.071 15.82 154.395 16.14 154.627 16.564C154.859 16.988 154.975 17.5 154.975 18.1V22H153.619V18.304C153.619 17.712 153.471 17.26 153.175 16.948C152.879 16.628 152.475 16.468 151.963 16.468C151.451 16.468 151.043 16.628 150.739 16.948C150.443 17.26 150.295 17.712 150.295 18.304V22H148.927V15.388H150.295V16.144C150.519 15.872 150.803 15.66 151.147 15.508C151.499 15.356 151.871 15.28 152.263 15.28ZM158.316 16.504V20.164C158.316 20.412 158.372 20.592 158.484 20.704C158.604 20.808 158.804 20.86 159.084 20.86H159.924V22H158.844C158.228 22 157.756 21.856 157.428 21.568C157.1 21.28 156.936 20.812 156.936 20.164V16.504H156.156V15.388H156.936V13.744H158.316V15.388H159.924V16.504H158.316ZM167.221 16.06C167.005 15.644 166.705 15.332 166.321 15.124C165.937 14.908 165.493 14.8 164.989 14.8C164.437 14.8 163.945 14.924 163.513 15.172C163.081 15.42 162.741 15.772 162.493 16.228C162.253 16.684 162.133 17.212 162.133 17.812C162.133 18.412 162.253 18.944 162.493 19.408C162.741 19.864 163.081 20.216 163.513 20.464C163.945 20.712 164.437 20.836 164.989 20.836C165.733 20.836 166.337 20.628 166.801 20.212C167.265 19.796 167.549 19.232 167.653 18.52H164.521V17.428H169.117V18.496C169.029 19.144 168.797 19.74 168.421 20.284C168.053 20.828 167.569 21.264 166.969 21.592C166.377 21.912 165.717 22.072 164.989 22.072C164.205 22.072 163.489 21.892 162.841 21.532C162.193 21.164 161.677 20.656 161.293 20.008C160.917 19.36 160.729 18.628 160.729 17.812C160.729 16.996 160.917 16.264 161.293 15.616C161.677 14.968 162.193 14.464 162.841 14.104C163.497 13.736 164.213 13.552 164.989 13.552C165.877 13.552 166.665 13.772 167.353 14.212C168.049 14.644 168.553 15.26 168.865 16.06H167.221ZM171.834 16.348C172.034 16.012 172.298 15.752 172.626 15.568C172.962 15.376 173.358 15.28 173.814 15.28V16.696H173.466C172.93 16.696 172.522 16.832 172.242 17.104C171.97 17.376 171.834 17.848 171.834 18.52V22H170.466V15.388H171.834V16.348ZM181.132 18.532C181.132 18.78 181.116 19.004 181.084 19.204H176.032C176.072 19.732 176.268 20.156 176.62 20.476C176.972 20.796 177.404 20.956 177.916 20.956C178.652 20.956 179.172 20.648 179.476 20.032H180.952C180.752 20.64 180.388 21.14 179.86 21.532C179.34 21.916 178.692 22.108 177.916 22.108C177.284 22.108 176.716 21.968 176.212 21.688C175.716 21.4 175.324 21 175.036 20.488C174.756 19.968 174.616 19.368 174.616 18.688C174.616 18.008 174.752 17.412 175.024 16.9C175.304 16.38 175.692 15.98 176.188 15.7C176.692 15.42 177.268 15.28 177.916 15.28C178.54 15.28 179.096 15.416 179.584 15.688C180.072 15.96 180.452 16.344 180.724 16.84C180.996 17.328 181.132 17.892 181.132 18.532ZM179.704 18.1C179.696 17.596 179.516 17.192 179.164 16.888C178.812 16.584 178.376 16.432 177.856 16.432C177.384 16.432 176.98 16.584 176.644 16.888C176.308 17.184 176.108 17.588 176.044 18.1H179.704ZM185.142 15.28C185.654 15.28 186.106 15.384 186.498 15.592C186.898 15.792 187.21 16.044 187.434 16.348V15.388H188.814V22.108C188.814 22.716 188.686 23.256 188.43 23.728C188.174 24.208 187.802 24.584 187.314 24.856C186.834 25.128 186.258 25.264 185.586 25.264C184.69 25.264 183.946 25.052 183.354 24.628C182.762 24.212 182.426 23.644 182.346 22.924H183.702C183.806 23.268 184.026 23.544 184.362 23.752C184.706 23.968 185.114 24.076 185.586 24.076C186.138 24.076 186.582 23.908 186.918 23.572C187.262 23.236 187.434 22.748 187.434 22.108V21.004C187.202 21.316 186.886 21.58 186.486 21.796C186.094 22.004 185.646 22.108 185.142 22.108C184.566 22.108 184.038 21.964 183.558 21.676C183.086 21.38 182.71 20.972 182.43 20.452C182.158 19.924 182.022 19.328 182.022 18.664C182.022 18 182.158 17.412 182.43 16.9C182.71 16.388 183.086 15.992 183.558 15.712C184.038 15.424 184.566 15.28 185.142 15.28ZM187.434 18.688C187.434 18.232 187.338 17.836 187.146 17.5C186.962 17.164 186.718 16.908 186.414 16.732C186.11 16.556 185.782 16.468 185.43 16.468C185.078 16.468 184.75 16.556 184.446 16.732C184.142 16.9 183.894 17.152 183.702 17.488C183.518 17.816 183.426 18.208 183.426 18.664C183.426 19.12 183.518 19.52 183.702 19.864C183.894 20.208 184.142 20.472 184.446 20.656C184.758 20.832 185.086 20.92 185.43 20.92C185.782 20.92 186.11 20.832 186.414 20.656C186.718 20.48 186.962 20.224 187.146 19.888C187.338 19.544 187.434 19.144 187.434 18.688ZM193.479 22.108C192.855 22.108 192.291 21.968 191.787 21.688C191.283 21.4 190.887 21 190.599 20.488C190.311 19.968 190.167 19.368 190.167 18.688C190.167 18.016 190.315 17.42 190.611 16.9C190.907 16.38 191.311 15.98 191.823 15.7C192.335 15.42 192.907 15.28 193.539 15.28C194.171 15.28 194.743 15.42 195.255 15.7C195.767 15.98 196.171 16.38 196.467 16.9C196.763 17.42 196.911 18.016 196.911 18.688C196.911 19.36 196.759 19.956 196.455 20.476C196.151 20.996 195.735 21.4 195.207 21.688C194.687 21.968 194.111 22.108 193.479 22.108ZM193.479 20.92C193.831 20.92 194.159 20.836 194.463 20.668C194.775 20.5 195.027 20.248 195.219 19.912C195.411 19.576 195.507 19.168 195.507 18.688C195.507 18.208 195.415 17.804 195.231 17.476C195.047 17.14 194.803 16.888 194.499 16.72C194.195 16.552 193.867 16.468 193.515 16.468C193.163 16.468 192.835 16.552 192.531 16.72C192.235 16.888 191.999 17.14 191.823 17.476C191.647 17.804 191.559 18.208 191.559 18.688C191.559 19.4 191.739 19.952 192.099 20.344C192.467 20.728 192.927 20.92 193.479 20.92Z" fill="white"/>
<path d="M36.8001 12.1115C33.1334 0.318719 21.1334 5.57768 20.0001 11.4741C18.4668 5.17928 6.8001 0.478081 3.2001 12.1115C-0.799899 25.0199 18.6001 36.5737 20.0001 38.4861C21.4001 36.9721 40.8001 24.7809 36.8001 12.1115Z" fill="#7838F8"/>
<path d="M38.6667 9.24303C38.2667 7.72909 37.6 6.3745 36.6667 5.25897C35.8 4.14343 34.6667 3.26694 33.5334 2.70917C32.9334 2.39044 32.3334 2.23108 31.7334 2.07172C31.4 1.99203 31.1334 1.99203 30.8 1.91235H29.8667L30.6667 2.39044L31.4667 2.86853C32 3.18725 32.5334 3.50598 33 3.90439C34 4.62152 34.8667 5.49801 35.6667 6.45419C36.4667 7.41036 37.0667 8.5259 37.6667 9.8008C37.9334 10.4383 38.2 11.0757 38.4 11.7132C38.5334 12.0319 38.6 12.4303 38.7334 12.749L39.0667 13.7849C39.1334 13.3865 39.1334 12.9881 39.1334 12.6693C39.1334 12.2709 39.1334 11.8725 39.0667 11.5538C39 10.757 38.8667 9.96016 38.6667 9.24303" fill="#7838F8"/>
<path d="M39.9999 7.09163C39.9333 6.53387 39.8666 5.9761 39.7333 5.41833C39.4666 4.30279 38.9333 3.26693 38.2666 2.39044C37.5999 1.51394 36.7999 0.876494 35.9333 0.557769C35.4666 0.398406 35.0666 0.239044 34.5999 0.159363C34.3999 0.159363 34.1333 0.0796814 33.9333 0.0796814C33.7333 0.0796814 33.4666 0.0796813 33.2666 0.159363C33.4666 0.318725 33.6666 0.398406 33.8666 0.557769C33.9999 0.63745 34.1999 0.796813 34.3999 0.876494C34.7999 1.11554 35.1333 1.35458 35.4666 1.67331C36.1333 2.23108 36.7999 2.86853 37.3333 3.50598C37.8666 4.22311 38.3333 5.01992 38.7999 5.89641C38.9999 6.29482 39.1999 6.77291 39.3999 7.251C39.4666 7.49004 39.5999 7.72908 39.6666 7.96813C39.7333 8.20717 39.8666 8.44622 39.9333 8.76494C39.9999 8.44622 39.9999 8.20717 39.9999 7.88845V7.09163" fill="#7838F8"/>
<path d="M1.53337 11.7132C1.73337 11.0757 2.00003 10.3586 2.2667 9.8008C2.80003 8.5259 3.4667 7.41036 4.2667 6.45419C5.0667 5.49801 5.93337 4.62152 6.93337 3.90439C7.40003 3.50598 7.93337 3.18725 8.4667 2.86853L9.2667 2.39044L10.0667 1.91235H9.13337C8.80003 1.91235 8.53337 1.99203 8.20003 2.07172C7.60003 2.23108 7.00003 2.39044 6.40003 2.70917C5.2667 3.26694 4.20003 4.14343 3.33337 5.25897C2.4667 6.3745 1.73337 7.72909 1.33337 9.24303C1.13337 9.96016 1.00003 10.757 0.933366 11.4741C0.866699 11.8725 0.866699 12.2709 0.866699 12.5896C0.866699 12.9881 0.866699 13.3865 0.933366 13.7052L1.2667 12.6693C1.33337 12.3506 1.40003 12.0319 1.53337 11.7132" fill="#7838F8"/>
<path d="M2.66667 3.58566C3.2 2.86853 3.86667 2.23108 4.53333 1.67331C4.86667 1.43426 5.26667 1.11554 5.6 0.876494C5.8 0.717131 6 0.63745 6.2 0.478088C6.4 0.318725 6.6 0.239044 6.8 0.0796812C6.6 0.0796812 6.33333 0 6.13333 0C5.93333 0 5.66667 -7.71773e-08 5.46667 0.0796812C5 0.159362 4.6 0.318725 4.13333 0.478088C3.2 0.956175 2.4 1.59363 1.73333 2.39044C1.06667 3.26693 0.533333 4.30279 0.266667 5.41833C0.133333 5.9761 0.0666667 6.53386 0 7.09163V7.96813C0 8.28685 -6.45717e-08 8.5259 0.0666666 8.84462C0.133333 8.60558 0.266667 8.36654 0.333333 8.04781C0.466667 7.72908 0.533333 7.49004 0.666667 7.251C0.866667 6.77291 1.06667 6.29482 1.26667 5.89642C1.66667 5.01992 2.13333 4.22311 2.66667 3.58566" fill="#7838F8"/>
<path d="M3.86672 26.7729L3.80005 26.9323C4.13338 28.1275 4.66672 29.0837 5.20005 30.0399C5.73338 30.996 6.40005 31.7928 7.06672 32.51C7.73338 33.2271 8.46672 33.9442 9.26672 34.5817C10.0667 35.2191 10.9334 35.6972 11.9334 36.0159L12 35.8566C10.6667 34.263 9.33338 32.749 8.00005 31.2351C6.60005 29.8008 5.26672 28.2072 3.86672 26.7729" fill="#7838F8"/>
<path d="M1.06667 29.1634L1 29.3227C1.46667 30.6773 2.06667 31.7928 2.73333 32.8287C3.4 33.8646 4.13333 34.8207 4.93333 35.6972C5.73333 36.5737 6.53333 37.3705 7.46667 38.1673C8.4 38.8845 9.33333 39.6016 10.4667 40L10.5333 39.8407C9 38.008 7.4 36.255 5.86667 34.4223C4.26667 32.6693 2.66667 30.8367 1.06667 29.1634" fill="#7838F8"/>
<path d="M33 32.51C33.6667 31.7132 34.3333 30.9163 34.8667 30.0399C35.4 29.1634 35.9333 28.1275 36.2667 26.9323L36.2 26.7729C34.8 28.2072 33.4667 29.8008 32.0667 31.2351C30.7333 32.749 29.4 34.263 28.0667 35.8566L28.1333 36.0159C29.1333 35.6972 30 35.1395 30.8 34.5817C31.6 33.9442 32.2667 33.2271 33 32.51" fill="#7838F8"/>
<path d="M34.1332 34.4223C32.5999 36.255 30.9999 38.008 29.4666 39.8407L29.5332 40C30.6666 39.5219 31.5999 38.8845 32.5332 38.1673C33.4666 37.4502 34.2666 36.6534 35.0666 35.6972C35.8666 34.8207 36.5999 33.8646 37.2666 32.8287C37.9332 31.7928 38.5332 30.6773 38.9999 29.3227L38.9332 29.1634C37.3332 30.8367 35.7332 32.6693 34.1332 34.4223" fill="#7838F8"/>
</svg>
